<svg width="712.3" height="335.2" viewbox = "0 0 712.3 335.2"  xmlns="http://www.w3.org/2000/svg">
	<path d = "M105 105 L105 21 L21 21 L21 105 L105 105 Z" stroke = "#000000" stroke-width = "1" fill = "none" />	<path d = "M63 105 L60 105 L60 84 L65 84 L65 105 L63 105 Z" stroke = "#000000" stroke-width = "1" fill = "#000000" />	<path d = "M63 63 L60 63 L60 42 L65 42 L65 63 L63 63 Z" stroke = "#000000" stroke-width = "1" fill = "#000000" />	<path d = "M189 105 L189 21 L105 21 L105 105 L189 105 Z" stroke = "#000000" stroke-width = "1" fill = "none" />	<path d = "M168 84 L168 42 L126 42 L126 84 L168 84 Z" stroke = "#000000" stroke-width = "1" fill = "#000000" />	<path d = "M147 84 L145 84 L145 73 L148 73 L148 84 L147 84 Z" stroke = "#ffff00" stroke-width = "1" fill = "#ffff00" />	<path d = "M147 63 L145 63 L145 52 L148 52 L148 63 L147 63 Z" stroke = "#ffff00" stroke-width = "1" fill = "#ffff00" />	<path d = "M272 105 L272 21 L189 21 L189 105 L272 105 Z" stroke = "#000000" stroke-width = "1" fill = "none" />	<path d = "M209 84 L251 84 L230 48 L210 84 Z" stroke = "#ff7900" stroke-width = "1" fill = "#ff7900" />	<path d = "M210 84 L230 48 L251 84 L210 84 Z" stroke = "#000000" stroke-width = "5" fill = "none" />	<path d = "M356 105 L356 21 L272 21 L272 105 L356 105 Z" stroke = "#000000" stroke-width = "5" fill = "none" />	<path d = "M314 63 L304 63 L304 52 L304 42 L314 42 L325 42 L325 52 L325 63 L314 63 Z" stroke = "#000000" stroke-width = "5" fill = "#000000" />	<path d = "M440 105 L440 21 L356 21 L356 105 L440 105 Z" stroke = "#000000" stroke-width = "1" fill = "none" />	<path d = "M398 63 L388 63 L388 52 L388 42 L377 42 L388 31 L398 21 L409 31 L419 42 L409 42 L409 52 L409 63 L398 63 Z" stroke = "#000000" stroke-width = "1" fill = "#000000" />	<path d = "M524 105 L524 21 L440 21 L440 105 L524 105 Z" stroke = "#000000" stroke-width = "1" fill = "none" />	<path d = "M482 63 L474 55 L482 33 Z" stroke = "#000000" stroke-width = "1" fill = "#000000" />	<path d = "M482 33 L489 55 L482 63 Z" stroke = "#000000" stroke-width = "1" fill = "none" />	<path d = "M608 105 L608 21 L524 21 L524 105 L608 105 Z" stroke = "#000000" stroke-width = "1" fill = "none" />	<path d = "M566 63 L558 55 L566 33 Z" stroke = "#000000" stroke-width = "1" fill = "#000000" />	<path d = "M566 33 L573 55 L566 63 Z" stroke = "#000000" stroke-width = "1" fill = "none" />	<path d = "M566 63 L573 55 L596 63 Z" stroke = "#000000" stroke-width = "1" fill = "#000000" />	<path d = "M596 63 L573 70 L566 63 Z" stroke = "#000000" stroke-width = "1" fill = "none" />	<path d = "M566 63 L573 70 L566 93 Z" stroke = "#000000" stroke-width = "1" fill = "#000000" />	<path d = "M566 93 L558 70 L566 63 Z" stroke = "#000000" stroke-width = "1" fill = "none" />	<path d = "M566 63 L558 70 L535 63 Z" stroke = "#000000" stroke-width = "1" fill = "#000000" />	<path d = "M535 63 L558 55 L566 63 Z" stroke = "#000000" stroke-width = "1" fill = "none" />	<path d = "M691 105 L691 21 L608 21 L608 105 L691 105 Z" stroke = "#000000" stroke-width = "1" fill = "none" />	<path d = "M704 118 L704 6 L592 6 L592 118 L704 118 Z" stroke = "#000000" stroke-width = "5" fill = "none" />	<path d = "M648 76 L648 27 L600 27 L600 76 L648 76 Z" stroke = "#000000" stroke-width = "5" fill = "none" />	<path d = "M624 76 L624 100 L648 100 L673 100 L697 100 L697 76 L697 51 L697 39 L673 39 L648 39 " stroke = "#000000" stroke-width = "5" fill = "none" />	<path d = "M105 210 L105 126 L21 126 L21 210 L105 210 Z" stroke = "#000000" stroke-width = "1" fill = "none" />	<path d = "M42 189 L42 147 L63 168 L42 189 Z" stroke = "#000000" stroke-width = "1" fill = "#000000" />	<path d = "M189 210 L189 126 L105 126 L105 210 L189 210 Z" stroke = "#000000" stroke-width = "1" fill = "none" />	<path d = "M126 189 L126 168 L147 168 L126 189 Z" stroke = "#000000" stroke-width = "1" fill = "#000000" />	<path d = "M126 189 L147 189 L168 168 L147 168 L126 189 Z" stroke = "#ffff00" stroke-width = "1" fill = "#ffff00" />	<path d = "M147 189 L168 168 L168 189 L147 189 Z" stroke = "#000000" stroke-width = "1" fill = "#000000" />	<path d = "M272 210 L272 126 L189 126 L189 210 L272 210 Z" stroke = "#000000" stroke-width = "1" fill = "none" />	<path d = "M199 199 L199 189 L209 189 L199 199 Z" stroke = "#000000" stroke-width = "1" fill = "#000000" />	<path d = "M199 199 L209 199 L220 189 L209 189 L199 199 Z" stroke = "#ffff00" stroke-width = "1" fill = "#ffff00" />	<path d = "M209 199 L220 189 L220 199 L210 199 Z" stroke = "#000000" stroke-width = "1" fill = "#000000" />	<path d = "M220 199 L220 189 L230 189 L220 199 Z" stroke = "#000000" stroke-width = "1" fill = "#000000" />	<path d = "M220 199 L230 199 L241 189 L230 189 L220 199 Z" stroke = "#ffff00" stroke-width = "1" fill = "#ffff00" />	<path d = "M230 199 L241 189 L241 199 L230 199 Z" stroke = "#000000" stroke-width = "1" fill = "#000000" />	<path d = "M241 199 L241 189 L251 189 L241 199 Z" stroke = "#000000" stroke-width = "1" fill = "#000000" />	<path d = "M241 199 L251 199 L262 189 L251 189 L241 199 Z" stroke = "#ffff00" stroke-width = "1" fill = "#ffff00" />	<path d = "M251 199 L262 189 L262 199 L251 199 Z" stroke = "#000000" stroke-width = "1" fill = "#000000" />	<path d = "M199 147 L199 136 L210 136 L199 147 Z" stroke = "#000000" stroke-width = "1" fill = "#000000" />	<path d = "M199 147 L210 147 L220 136 L210 136 L199 147 Z" stroke = "#ffff00" stroke-width = "1" fill = "#ffff00" />	<path d = "M210 147 L220 136 L220 147 L210 147 Z" stroke = "#000000" stroke-width = "1" fill = "#000000" />	<path d = "M220 147 L220 136 L230 136 L220 147 Z" stroke = "#000000" stroke-width = "1" fill = "#000000" />	<path d = "M220 147 L230 147 L241 136 L230 136 L220 147 Z" stroke = "#ffff00" stroke-width = "1" fill = "#ffff00" />	<path d = "M230 147 L241 136 L241 147 L230 147 Z" stroke = "#000000" stroke-width = "1" fill = "#000000" />	<path d = "M241 147 L241 136 L251 136 L241 147 Z" stroke = "#000000" stroke-width = "1" fill = "#000000" />	<path d = "M241 147 L251 147 L262 136 L251 136 L241 147 Z" stroke = "#ffff00" stroke-width = "1" fill = "#ffff00" />	<path d = "M251 147 L262 136 L262 147 L251 147 Z" stroke = "#000000" stroke-width = "1" fill = "#000000" />	<path d = "M204 178 L204 157 L215 168 L204 178 Z" stroke = "#000000" stroke-width = "1" fill = "#000000" />	<path d = "M225 178 L225 157 L236 168 L225 178 Z" stroke = "#000000" stroke-width = "1" fill = "#000000" />	<path d = "M246 178 L246 157 L257 168 L246 178 Z" stroke = "#000000" stroke-width = "1" fill = "#000000" />	<path d = "M356 210 L356 126 L272 126 L272 210 L356 210 Z" stroke = "#000000" stroke-width = "1" fill = "none" />	<path d = "M283 189 L304 189 L304 168 L283 168 L283 189 Z" stroke = "#000000" stroke-width = "1" fill = "#000000" />	<path d = "M283 178 L283 177 L288 177 L288 179 L283 179 L283 178 Z" stroke = "#ffff00" stroke-width = "1" fill = "#ffff00" />	<path d = "M293 178 L293 177 L299 177 L299 179 L293 179 L293 178 Z" stroke = "#ffff00" stroke-width = "1" fill = "#ffff00" />	<path d = "M304 189 L325 189 L325 168 L304 168 L304 189 Z" stroke = "#000000" stroke-width = "1" fill = "#000000" />	<path d = "M304 178 L304 177 L309 177 L309 179 L304 179 L304 178 Z" stroke = "#ffff00" stroke-width = "1" fill = "#ffff00" />	<path d = "M314 178 L314 177 L319 177 L319 179 L314 179 L314 178 Z" stroke = "#ffff00" stroke-width = "1" fill = "#ffff00" />	<path d = "M288 162 L299 162 L293 153 L288 162 Z" stroke = "#ff7900" stroke-width = "1" fill = "#ff7900" />	<path d = "M288 162 L293 153 L299 162 L288 162 Z" stroke = "#000000" stroke-width = "5" fill = "none" />	<path d = "M440 210 L440 126 L356 126 L356 210 L440 210 Z" stroke = "#000000" stroke-width = "1" fill = "none" />	<path d = "M377 189 L398 189 L419 189 L409 170 L398 152 L388 170 L377 189 Z" stroke = "#0000ff" stroke-width = "8" fill = "none" /><path    d = "M398,183 C403,174 393,171 398,162" fill = "none" stroke-width = "8" stroke = "#0000ff" /><circle cx="393" cy = "173" r = "2.61875" stroke = "#0000ff" stroke-width = "8" fill = "none" />
    <circle cx="403" cy = "173" r = "2.61875" stroke = "#0000ff" stroke-width = "8" fill = "#0000ff" />
	<path d = "M524 210 L524 126 L440 126 L440 210 L524 210 Z" stroke = "#000000" stroke-width = "1" fill = "none" />	<path d = "M608 210 L608 126 L524 126 L524 210 L608 210 Z" stroke = "#000000" stroke-width = "1" fill = "none" />	<path d = "M691 210 L691 126 L608 126 L608 210 L691 210 Z" stroke = "#000000" stroke-width = "1" fill = "none" />	<path d = "M105 314 L105 230 L21 230 L21 314 L105 314 Z" stroke = "#000000" stroke-width = "1" fill = "none" /><path    d = "M63,293 C52,293 73,251 63,251" fill = "none" stroke-width = "1" stroke = "#000000" />	<path d = "M189 314 L189 230 L105 230 L105 314 L189 314 Z" stroke = "#000000" stroke-width = "1" fill = "none" />	<path d = "M272 314 L272 230 L189 230 L189 314 L272 314 Z" stroke = "#000000" stroke-width = "1" fill = "none" />	<path d = "M356 314 L356 230 L272 230 L272 314 L356 314 Z" stroke = "#000000" stroke-width = "1" fill = "none" />	<path d = "M440 314 L440 230 L356 230 L356 314 L440 314 Z" stroke = "#000000" stroke-width = "1" fill = "none" />	<path d = "M524 314 L524 230 L440 230 L440 314 L524 314 Z" stroke = "#000000" stroke-width = "1" fill = "none" />	<path d = "M608 314 L608 230 L524 230 L524 314 L608 314 Z" stroke = "#000000" stroke-width = "1" fill = "none" />	<path d = "M691 314 L691 230 L608 230 L608 314 L691 314 Z" stroke = "#000000" stroke-width = "1" fill = "none" /></svg>