<svg width="500" height="500" viewbox = "0 0 500 500"  xmlns="http://www.w3.org/2000/svg">
<!--<json>{
  "glyph": "0330,0330,0332,0234,0331,0331,0331,0332,0332,0232,0333,0333,0333,0333,0333,0233,0330,0330,0331,0331,0331,0331,0331,0331,01015,0163,0164,0162,0145,0145,0164,0365,0332,0332,0332,0332,0332,0332,0332,0332,0332,0332,01015,0146,0141,0143,0164,0157,0162,0171,0365,0330,0330,0330,0333,0330,0333,0330,0333,0330,0333,0330,0333,0333,0331,0332,01015,0167,0141,0164,0145,0162,0163,0150,0145,0144,0365,",
  "shapes": [
    "0220:0334,0336,0336,0336,0336,0362,0203,0335,0337,0337,0337,0203,0335,0336,0336,0203,0335,0337,0337,0203,0335,0336,0336,0336,0203,0363,0335,0337,0337,0337,0330,0330,0337,",
    "0221:0333,0337,0204,0324,0336,0332,0220,0220,0320,",
    "0222:0323,0335,0306,0362,0203,0334,0334,0203,0334,0334,0203,0363,0335,0335,0335,0321,0362,0203,0335,0335,0203,0335,0335,0203,0364,0304,0335,",
    "0223:0334,0336,0362,0203,0335,0203,0203,0335,0203,0203,0335,0203,0203,0335,0203,0363,0335,0330,0330,0337,",
    "0224:0304,0313,0336,0336,0334,0310,0350,0362,0203,0335,0335,0203,0203,0334,0334,0203,0335,0335,0335,0337,0203,0203,0335,0335,0203,0203,0335,0335,0335,0336,0203,0334,0334,0203,0203,0335,0335,0203,0363,0304,0335,0313,0337,0337,",
    "0225:0350,0334,0336,0362,0203,0335,0335,0335,0310,0336,0313,0337,0311,0305,0334,0337,0203,0363,0335,0335,0362,0203,0335,0350,0335,0336,0313,0336,0304,0350,0310,0337,0334,0203,0354,0313,0337,0335,0304,0335,0335,",
    "0226:0225,0225,0225,0225,",
    "0227:0333,0331,0336,0331,0333,0337,0337,0337,0210,0210,0321,0200,0336,0330,0332,0336,0333,0336,0331,0332,0332,0337,0337,0210,0200,0336,0332,0335,0335,0362,0203,0334,0203,0203,0203,0334,0203,0203,0336,0203,0334,0337,0203,0203,0364,",
    "0230:0304,0350,0310,0362,0203,0335,0335,0335,0336,0203,0335,0335,0203,0363,0335,0335,0335,0304,0337,0313,",
    "0231:0304,0350,0310,0362,0203,0335,0335,0203,0335,0335,0335,0337,0203,0363,0334,0334,0334,0336,0324,0362,0203,0334,0337,0203,0334,0334,0334,0336,0203,0334,0337,0203,0363,0335,0336,0331,0320,0335,0335,0335,0337,0362,0203,0335,0335,0335,0336,0203,0335,0335,0203,0363,0331,0304,0313,0335,",
    "0232:0336,0330,0330,0333,0333,0336,0331,0332,0331,0332,0337,0331,0332,0336,0231,0231,0231,0330,0330,0330,0330,0330,0332,0332,0332,0332,0332,0332,0231,0231,0231,0331,0331,0331,0332,0332,0332,0332,0332,0332,0336,0333,0337,0337,0230,0333,0230,0333,0230,0331,0332,0332,0332,0336,0333,0336,0333,0337,0337,0337,",
    "0233:0335,0336,0331,0332,0221,0221,0336,0334,0337,0337,0330,0332,0332,0336,0331,0336,0330,0333,0337,0222,0320,",
    "0234:0326,0335,0306,0362,0203,0203,0334,0334,0203,0203,0334,0334,0203,0203,0354,0335,0331,0304,0335,0336,0336,0330,0337,0337,0306,0350,0335,0336,0366,0332,0332,0335,0335,0335,0335,0335,0335,0367,0334,0330,0304,0335,0335,0336,0332,0336,0341,0337,0337,0333,0336,0336,0347,0337,0337,0336,0332,0337,0331,0336,0331,0337,0337,0332,0320,",
    "0235:",
    "0236:",
    "0237:",
    "0240:0334,0336,0336,0366,0337,0337,0333,0335,0335,0336,0336,0367,0334,0337,0337,",
    "0241:",
    "0242:",
    "0243:",
    "0244:",
    "0245:",
    "0246:",
    "0247:",
    "01220:0333,0200,0336,0330,0332,0331,0220,0220,0333,0337,0331,",
    "01221:0333,0200,0336,0332,0336,0330,0221,0333,0333,0331,0331,0331,0337,0337,",
    "01222:0333,0200,0336,0330,0336,0331,0332,0337,0332,0222,0333,0336,0333,0331,0337,0337,",
    "01223:0333,0200,0336,0330,0332,0336,0333,0332,0223,0336,0333,0331,0333,0333,0331,0331,0333,0320,0331,0337,0337,0337,",
    "01224:0333,0200,0336,0332,0330,0224,0333,0331,0337,",
    "01225:0333,0200,0336,0330,0332,0336,0225,0330,0330,0334,0331,0331,0337,0337,",
    "01226:0333,0200,0336,0330,0332,0336,0226,0331,0331,0333,0333,0337,0337,",
    "01227:0333,0200,0336,0330,0332,0210,0227,0211,0331,0333,0337,0334,0320,0335,0335,0331,0336,0336,0331,0331,0331,0333,0336,0330,0337,0337,0337,0337,0210,0210,0210,0211,",
    "01230:0333,0200,0336,0330,0332,0336,0331,0332,0337,0230,0333,0336,0333,0331,0337,0337,",
    "01231:0333,0200,0336,0330,0332,0336,0331,0332,0337,0336,0231,0331,0333,0337,0337,",
    "01232:0333,0200,0336,0330,0332,0331,0336,0332,0332,0336,0330,0333,0337,0337,0232,0333,0336,0333,0336,0333,0331,0337,0337,0337,",
    "01233:0333,0200,0336,0332,0337,0336,0330,0332,0336,0331,0333,0233,0331,0331,0331,0331,0332,0336,0331,0332,0337,0337,0337,0333,0333,0337,0331,0336,0330,0337,0337,",
    "01234:0333,0200,0336,0330,0332,0336,0331,0332,0234,0333,0333,0331,0333,0337,0337,",
    "01235:0333,0200,0235,",
    "01236:0333,0200,0236,",
    "01237:0333,0200,0336,0330,0332,0332,0237,0331,0336,0332,0337,0337,",
    "01240:0333,0200,0336,0332,0336,0330,0337,0240,0333,0336,0330,0337,0337,0331,",
    "01241:0333,0200,0336,0332,0241,0333,0337,",
    "01242:0333,0200,0336,0332,0332,0336,0330,0330,0242,0336,0331,0331,0331,0331,0332,0337,0337,0337,",
    "01243:0333,0200,0336,0332,0332,0243,0337,",
    "01244:0333,0200,0332,0336,0330,0336,0336,0243,0243,0243,0243,0331,0331,0331,0331,0337,0337,0337,",
    "01245:0333,0200,0336,0332,0336,0331,0337,0245,0333,0336,0330,0337,0337,",
    "01246:0333,0200,0330,0332,0336,0331,0336,0332,0337,0246,0333,0333,0336,0333,0331,0331,0337,0337,",
    "01247:0333,0200,0336,0330,0332,0337,0247,0336,0333,0331,0337,"
  ],
  "x0rel": 0.5,
  "y0rel": 0.5,
  "unitrel": 0.1,
  "theta0": -1.570796,
  "width": 500,
  "height": 500,
  "scale": 1,
  "backgroundimage": "",
  "style": {
    "color0": "black",
    "fill0": "black",
    "line0": 1,
    "color1": "black",
    "fill1": "black",
    "line1": 5,
    "color2": "red",
    "fill2": "red",
    "line2": 10,
    "color3": "#FF7900",
    "fill3": "#FF7900",
    "line3": 1,
    "color4": "yellow",
    "fill4": "yellow",
    "line4": 1,
    "color5": "green",
    "fill5": "green",
    "line5": 8,
    "color6": "blue",
    "fill6": "blue",
    "line6": 8,
    "color7": "purple",
    "fill7": "purple",
    "line7": 1
  },
  "controlbuttons": [
    196,
    198,
    200,
    203,
    128,
    216,
    217,
    218,
    219,
    220,
    221,
    222,
    223,
    27,
    8,
    134,
    225,
    192,
    16,
    17,
    145,
    151,
    146
  ]
}</json>-->	<path d = "M200 150 L250 150 L300 150 L275 107 L250 63 L225 107 L200 150 Z" stroke = "#0000ff" stroke-width = "8" fill = "none" /><path    d = "M250,138 C263,116 238,109 250,88" fill = "none" stroke-width = "8" stroke = "#0000ff" /><circle cx="238" cy = "112" r = "6.25" stroke = "#0000ff" stroke-width = "8" fill = "none" />
    <circle cx="263" cy = "113" r = "6.25" stroke = "#0000ff" stroke-width = "8" fill = "#0000ff" />
	<path d = "M100 300 L100 287 L112 287 L100 300 Z" stroke = "#000000" stroke-width = "1" fill = "#000000" />	<path d = "M100 300 L112 300 L125 287 L112 287 L100 300 Z" stroke = "#ffff00" stroke-width = "1" fill = "#ffff00" />	<path d = "M112 300 L125 287 L125 300 L112 300 Z" stroke = "#000000" stroke-width = "1" fill = "#000000" />	<path d = "M125 300 L125 287 L137 287 L125 300 Z" stroke = "#000000" stroke-width = "1" fill = "#000000" />	<path d = "M125 300 L137 300 L150 287 L137 287 L125 300 Z" stroke = "#ffff00" stroke-width = "1" fill = "#ffff00" />	<path d = "M137 300 L150 287 L150 300 L137 300 Z" stroke = "#000000" stroke-width = "1" fill = "#000000" />	<path d = "M150 300 L150 287 L162 287 L150 300 Z" stroke = "#000000" stroke-width = "1" fill = "#000000" />	<path d = "M150 300 L162 300 L175 287 L162 287 L150 300 Z" stroke = "#ffff00" stroke-width = "1" fill = "#ffff00" />	<path d = "M162 300 L175 287 L175 300 L162 300 Z" stroke = "#000000" stroke-width = "1" fill = "#000000" />	<path d = "M100 237 L100 225 L113 225 L100 237 Z" stroke = "#000000" stroke-width = "1" fill = "#000000" />	<path d = "M100 237 L113 237 L125 225 L113 225 L100 237 Z" stroke = "#ffff00" stroke-width = "1" fill = "#ffff00" />	<path d = "M113 237 L125 225 L125 237 L113 237 Z" stroke = "#000000" stroke-width = "1" fill = "#000000" />	<path d = "M125 237 L125 225 L138 225 L125 237 Z" stroke = "#000000" stroke-width = "1" fill = "#000000" />	<path d = "M125 237 L138 237 L150 225 L138 225 L125 237 Z" stroke = "#ffff00" stroke-width = "1" fill = "#ffff00" />	<path d = "M138 237 L150 225 L150 237 L138 237 Z" stroke = "#000000" stroke-width = "1" fill = "#000000" />	<path d = "M150 237 L150 225 L163 225 L150 237 Z" stroke = "#000000" stroke-width = "1" fill = "#000000" />	<path d = "M150 237 L163 237 L175 225 L163 225 L150 237 Z" stroke = "#ffff00" stroke-width = "1" fill = "#ffff00" />	<path d = "M163 237 L175 225 L175 237 L163 237 Z" stroke = "#000000" stroke-width = "1" fill = "#000000" />	<path d = "M106 275 L106 250 L119 262 L106 275 Z" stroke = "#000000" stroke-width = "1" fill = "#000000" />	<path d = "M131 275 L131 250 L144 262 L131 275 Z" stroke = "#000000" stroke-width = "1" fill = "#000000" />	<path d = "M156 275 L156 250 L169 262 L156 275 Z" stroke = "#000000" stroke-width = "1" fill = "#000000" />	<path d = "M325 300 L375 300 L375 250 L325 250 L325 300 Z" stroke = "#000000" stroke-width = "1" fill = "#000000" />	<path d = "M325 275 L325 273 L337 273 L337 277 L325 277 L325 275 Z" stroke = "#ffff00" stroke-width = "1" fill = "#ffff00" />	<path d = "M350 275 L350 273 L362 273 L362 277 L350 277 L350 275 Z" stroke = "#ffff00" stroke-width = "1" fill = "#ffff00" />	<path d = "M375 300 L425 300 L425 250 L375 250 L375 300 Z" stroke = "#000000" stroke-width = "1" fill = "#000000" />	<path d = "M375 275 L375 273 L387 273 L387 277 L375 277 L375 275 Z" stroke = "#ffff00" stroke-width = "1" fill = "#ffff00" />	<path d = "M400 275 L400 273 L412 273 L412 277 L400 277 L400 275 Z" stroke = "#ffff00" stroke-width = "1" fill = "#ffff00" />	<path d = "M338 238 L363 238 L350 216 L338 238 Z" stroke = "#ff7900" stroke-width = "1" fill = "#ff7900" />	<path d = "M338 238 L350 216 L363 238 L338 238 " stroke = "#000000" stroke-width = "5" fill = "none" />    <text x="337" y = "338" fill = "#000000" font-size = "24.999999999999996px" font-family = "Arial">street</text>
    <text x="87" y = "337" fill = "#000000" font-size = "24.999999999999996px" font-family = "Arial">factory</text>
    <text x="213" y = "187" fill = "#000000" font-size = "24.999999999999996px" font-family = "Arial">watershed</text>
</svg>