<svg width="500" height="500" viewbox = "0 0 500 500"  xmlns="http://www.w3.org/2000/svg">
<!--<json>{
  "glyph": "0332,0333,0331,0211,0211,0330,0330,0332,0234,0331,0331,0331,0332,0332,0232,0333,0333,0333,0333,0333,0233,0330,0330,0331,0331,0331,0331,0331,0331,01015,0163,0164,0162,0145,0145,0164,0365,0332,0332,0332,0332,0332,0332,0332,0332,0332,0332,01015,0146,0141,0143,0164,0157,0162,0171,0365,0330,0330,0330,0333,0330,0333,0330,0333,0330,0333,0330,0333,0333,0331,0332,0332,01015,0167,0141,0164,0145,0162,0163,0150,0145,0144,0365,",
  "shapes": [
    "0220:0334,0336,0336,0336,0336,0362,0203,0335,0337,0337,0337,0203,0335,0336,0336,0203,0335,0337,0337,0203,0335,0336,0336,0336,0203,0363,0335,0337,0337,0337,0330,0330,0337,",
    "0221:0333,0337,0204,0324,0336,0332,0220,0220,0320,",
    "0222:0323,0335,0306,0362,0203,0334,0334,0203,0334,0334,0203,0363,0335,0335,0335,0321,0362,0203,0335,0335,0203,0335,0335,0203,0364,0304,0335,",
    "0223:0334,0336,0362,0203,0335,0203,0203,0335,0203,0203,0335,0203,0203,0335,0203,0363,0335,0330,0330,0337,",
    "0224:0304,0313,0336,0336,0334,0310,0350,0362,0203,0335,0335,0203,0203,0334,0334,0203,0335,0335,0335,0337,0203,0203,0335,0335,0203,0203,0335,0335,0335,0336,0203,0334,0334,0203,0203,0335,0335,0203,0363,0304,0335,0313,0337,0337,",
    "0225:0350,0334,0336,0362,0203,0335,0335,0335,0310,0336,0313,0337,0311,0305,0334,0337,0203,0363,0335,0335,0362,0203,0335,0350,0335,0336,0313,0336,0304,0350,0310,0337,0334,0203,0354,0313,0337,0335,0304,0335,0335,",
    "0226:0225,0225,0225,0225,",
    "0227:0333,0331,0336,0331,0333,0337,0337,0337,0210,0210,0321,0200,0336,0330,0332,0336,0333,0336,0331,0332,0332,0337,0337,0210,0200,0336,0332,0335,0335,0362,0203,0334,0203,0203,0203,0334,0203,0203,0336,0203,0334,0337,0203,0203,0364,",
    "0230:0304,0350,0310,0362,0203,0335,0335,0335,0336,0203,0335,0335,0203,0363,0335,0335,0335,0304,0337,0313,",
    "0231:0304,0350,0310,0362,0203,0335,0335,0203,0335,0335,0335,0337,0203,0363,0334,0334,0334,0336,0324,0362,0203,0334,0337,0203,0334,0334,0334,0336,0203,0334,0337,0203,0363,0335,0336,0331,0320,0335,0335,0335,0337,0362,0203,0335,0335,0335,0336,0203,0335,0335,0203,0363,0331,0304,0313,0335,",
    "0232:0336,0330,0330,0333,0333,0336,0331,0332,0331,0332,0337,0331,0332,0336,0231,0231,0231,0330,0330,0330,0330,0330,0332,0332,0332,0332,0332,0332,0231,0231,0231,0331,0331,0331,0332,0332,0332,0332,0332,0332,0336,0333,0337,0337,0230,0333,0230,0333,0230,0331,0332,0332,0332,0336,0333,0336,0333,0337,0337,0337,",
    "0233:0335,0336,0331,0332,0221,0221,0336,0334,0337,0337,0330,0332,0332,0336,0331,0336,0330,0333,0337,0222,0320,",
    "0234:0326,0335,0306,0362,0203,0203,0334,0334,0203,0203,0334,0334,0203,0203,0354,0335,0331,0304,0335,0336,0336,0330,0337,0337,0306,0350,0335,0336,0366,0332,0332,0335,0335,0335,0335,0335,0335,0367,0334,0330,0304,0335,0335,0336,0332,0336,0341,0337,0337,0333,0336,0336,0347,0337,0337,0336,0332,0337,0331,0336,0331,0337,0337,0332,0320,",
    "0235:",
    "0236:",
    "0237:",
    "0240:0334,0336,0336,0366,0337,0337,0333,0335,0335,0336,0336,0367,0334,0337,0337,",
    "0241:",
    "0242:",
    "0243:",
    "0244:",
    "0245:",
    "0246:",
    "0247:",
    "01220:0333,0200,0336,0330,0332,0331,0220,0220,0333,0337,0331,",
    "01221:0333,0200,0336,0332,0336,0330,0221,0333,0333,0331,0331,0331,0337,0337,",
    "01222:0333,0200,0336,0330,0336,0331,0332,0337,0332,0222,0333,0336,0333,0331,0337,0337,",
    "01223:0333,0200,0336,0330,0332,0336,0333,0332,0223,0336,0333,0331,0333,0333,0331,0331,0333,0320,0331,0337,0337,0337,",
    "01224:0333,0200,0336,0332,0330,0224,0333,0331,0337,",
    "01225:0333,0200,0336,0330,0332,0336,0225,0330,0330,0334,0331,0331,0337,0337,",
    "01226:0333,0200,0336,0330,0332,0336,0226,0331,0331,0333,0333,0337,0337,",
    "01227:0333,0200,0336,0330,0332,0210,0227,0211,0331,0333,0337,0334,0320,0335,0335,0331,0336,0336,0331,0331,0331,0333,0336,0330,0337,0337,0337,0337,0210,0210,0210,0211,",
    "01230:0333,0200,0336,0330,0332,0336,0331,0332,0337,0230,0333,0336,0333,0331,0337,0337,",
    "01231:0333,0200,0336,0330,0332,0336,0331,0332,0337,0336,0231,0331,0333,0337,0337,",
    "01232:0333,0200,0336,0330,0332,0331,0336,0332,0332,0336,0330,0333,0337,0337,0232,0333,0336,0333,0336,0333,0331,0337,0337,0337,",
    "01233:0333,0200,0336,0332,0337,0336,0330,0332,0336,0331,0333,0233,0331,0331,0331,0331,0332,0336,0331,0332,0337,0337,0337,0333,0333,0337,0331,0336,0330,0337,0337,",
    "01234:0333,0200,0336,0330,0332,0336,0331,0332,0234,0333,0333,0331,0333,0337,0337,",
    "01235:0333,0200,0235,",
    "01236:0333,0200,0236,",
    "01237:0333,0200,0336,0330,0332,0332,0237,0331,0336,0332,0337,0337,",
    "01240:0333,0200,0336,0332,0336,0330,0337,0240,0333,0336,0330,0337,0337,0331,",
    "01241:0333,0200,0336,0332,0241,0333,0337,",
    "01242:0333,0200,0336,0332,0332,0336,0330,0330,0242,0336,0331,0331,0331,0331,0332,0337,0337,0337,",
    "01243:0333,0200,0336,0332,0332,0243,0337,",
    "01244:0333,0200,0332,0336,0330,0336,0336,0243,0243,0243,0243,0331,0331,0331,0331,0337,0337,0337,",
    "01245:0333,0200,0336,0332,0336,0331,0337,0245,0333,0336,0330,0337,0337,",
    "01246:0333,0200,0330,0332,0336,0331,0336,0332,0337,0246,0333,0333,0336,0333,0331,0331,0337,0337,",
    "01247:0333,0200,0336,0330,0332,0337,0247,0336,0333,0331,0337,"
  ],
  "x0rel": 0.5,
  "y0rel": 0.5,
  "unitrel": 0.1,
  "theta0": -1.570796,
  "width": 500,
  "height": 500,
  "scale": 1,
  "backgroundimage": "",
  "style": {
    "color0": "black",
    "fill0": "black",
    "line0": 1,
    "color1": "black",
    "fill1": "black",
    "line1": 5,
    "color2": "red",
    "fill2": "red",
    "line2": 10,
    "color3": "#FF7900",
    "fill3": "#FF7900",
    "line3": 1,
    "color4": "yellow",
    "fill4": "yellow",
    "line4": 1,
    "color5": "green",
    "fill5": "green",
    "line5": 8,
    "color6": "blue",
    "fill6": "blue",
    "line6": 8,
    "color7": "purple",
    "fill7": "purple",
    "line7": 1
  },
  "controlbuttons": [
    196,
    198,
    200,
    203,
    128,
    216,
    217,
    218,
    219,
    220,
    221,
    222,
    223,
    27,
    8,
    134,
    225,
    192,
    16,
    17,
    145,
    151,
    146
  ]
}</json>-->	<path d = "M185 169 L250 169 L315 169 L283 112 L250 56 L217 112 L185 169 Z" stroke = "#0000ff" stroke-width = "8" fill = "none" /><path    d = "M250,153 C266,124 234,116 250,87" fill = "none" stroke-width = "8" stroke = "#0000ff" /><circle cx="234" cy = "120" r = "8.18135621484342" stroke = "#0000ff" stroke-width = "8" fill = "none" />
    <circle cx="266" cy = "120" r = "8.18135621484342" stroke = "#0000ff" stroke-width = "8" fill = "#0000ff" />
	<path d = "M54 365 L54 349 L70 349 L54 365 Z" stroke = "#000000" stroke-width = "1" fill = "#000000" />	<path d = "M54 365 L70 365 L86 349 L70 349 L54 365 Z" stroke = "#ffff00" stroke-width = "1" fill = "#ffff00" />	<path d = "M70 365 L86 349 L86 365 L70 365 Z" stroke = "#000000" stroke-width = "1" fill = "#000000" />	<path d = "M86 365 L86 349 L103 349 L86 365 Z" stroke = "#000000" stroke-width = "1" fill = "#000000" />	<path d = "M86 365 L103 365 L119 349 L103 349 L86 365 Z" stroke = "#ffff00" stroke-width = "1" fill = "#ffff00" />	<path d = "M103 365 L119 349 L119 365 L103 365 Z" stroke = "#000000" stroke-width = "1" fill = "#000000" />	<path d = "M119 365 L119 349 L135 349 L119 365 Z" stroke = "#000000" stroke-width = "1" fill = "#000000" />	<path d = "M119 365 L135 365 L152 349 L135 349 L119 365 Z" stroke = "#ffff00" stroke-width = "1" fill = "#ffff00" />	<path d = "M135 365 L152 349 L152 365 L135 365 Z" stroke = "#000000" stroke-width = "1" fill = "#000000" />	<path d = "M54 284 L54 267 L70 267 L54 284 Z" stroke = "#000000" stroke-width = "1" fill = "#000000" />	<path d = "M54 284 L70 284 L86 267 L70 267 L54 284 Z" stroke = "#ffff00" stroke-width = "1" fill = "#ffff00" />	<path d = "M70 284 L86 267 L86 284 L70 284 Z" stroke = "#000000" stroke-width = "1" fill = "#000000" />	<path d = "M86 284 L86 267 L103 267 L86 284 Z" stroke = "#000000" stroke-width = "1" fill = "#000000" />	<path d = "M86 284 L103 284 L119 267 L103 267 L86 284 Z" stroke = "#ffff00" stroke-width = "1" fill = "#ffff00" />	<path d = "M103 284 L119 267 L119 284 L103 284 Z" stroke = "#000000" stroke-width = "1" fill = "#000000" />	<path d = "M119 284 L119 267 L135 267 L119 284 Z" stroke = "#000000" stroke-width = "1" fill = "#000000" />	<path d = "M119 284 L135 284 L152 267 L135 267 L119 284 Z" stroke = "#ffff00" stroke-width = "1" fill = "#ffff00" />	<path d = "M135 284 L152 267 L152 284 L135 284 Z" stroke = "#000000" stroke-width = "1" fill = "#000000" />	<path d = "M62 333 L62 300 L78 316 L62 333 Z" stroke = "#000000" stroke-width = "1" fill = "#000000" />	<path d = "M95 333 L95 300 L111 316 L95 333 Z" stroke = "#000000" stroke-width = "1" fill = "#000000" />	<path d = "M127 333 L127 300 L144 316 L127 333 Z" stroke = "#000000" stroke-width = "1" fill = "#000000" />	<path d = "M348 365 L414 365 L414 300 L348 300 L348 365 Z" stroke = "#000000" stroke-width = "1" fill = "#000000" />	<path d = "M348 333 L348 331 L365 331 L365 335 L348 335 L348 333 Z" stroke = "#ffff00" stroke-width = "1" fill = "#ffff00" />	<path d = "M381 333 L381 331 L397 331 L397 335 L381 335 L381 333 Z" stroke = "#ffff00" stroke-width = "1" fill = "#ffff00" />	<path d = "M414 365 L479 365 L479 300 L414 300 L414 365 Z" stroke = "#000000" stroke-width = "1" fill = "#000000" />	<path d = "M414 333 L414 331 L430 331 L430 335 L414 335 L414 333 Z" stroke = "#ffff00" stroke-width = "1" fill = "#ffff00" />	<path d = "M446 333 L446 331 L463 331 L463 335 L446 335 L446 333 Z" stroke = "#ffff00" stroke-width = "1" fill = "#ffff00" />	<path d = "M365 284 L397 284 L381 255 L365 284 Z" stroke = "#ff7900" stroke-width = "1" fill = "#ff7900" />	<path d = "M365 284 L381 255 L397 284 L365 284 " stroke = "#000000" stroke-width = "5" fill = "none" />    <text x="365" y = "415" fill = "#000000" font-size = "32.72542485937368px" font-family = "Arial">street</text>
    <text x="37" y = "415" fill = "#000000" font-size = "32.72542485937368px" font-family = "Arial">factory</text>
    <text x="168" y = "218" fill = "#000000" font-size = "32.72542485937368px" font-family = "Arial">watershed</text>
</svg>